<?xml version="1.0" encoding="UTF-8" standalone="no"?>
<!-- Created with Inkscape (http://www.inkscape.org/) -->

<svg
   xmlns:dc="http://purl.org/dc/elements/1.1/"
   xmlns:cc="http://creativecommons.org/ns#"
   xmlns:rdf="http://www.w3.org/1999/02/22-rdf-syntax-ns#"
   xmlns:svg="http://www.w3.org/2000/svg"
   xmlns="http://www.w3.org/2000/svg"
   xmlns:sodipodi="http://sodipodi.sourceforge.net/DTD/sodipodi-0.dtd"
   xmlns:inkscape="http://www.inkscape.org/namespaces/inkscape"
   width="60"
   height="60"
   viewBox="0 0 60.000003 60.000001"
   id="svg2"
   version="1.1"
   inkscape:version="0.91 r13725"
   inkscape:export-filename="/media/monster/KINGSTON/simplon/site_Develo'Pont/image/icone_retour2"
   inkscape:export-xdpi="32.142857"
   inkscape:export-ydpi="32.142857"
   sodipodi:docname="dessin.svg">
  <defs
     id="defs4" />
  <sodipodi:namedview
     id="base"
     pagecolor="#ffffff"
     bordercolor="#666666"
     borderopacity="1.0"
     inkscape:pageopacity="0.0"
     inkscape:pageshadow="2"
     inkscape:zoom="11.313709"
     inkscape:cx="9.1749118"
     inkscape:cy="26.221589"
     inkscape:document-units="px"
     inkscape:current-layer="layer1"
     showgrid="false"
     units="px"
     showborder="true"
     inkscape:snap-grids="true"
     inkscape:snap-to-guides="true"
     inkscape:snap-bbox="false"
     inkscape:window-width="1920"
     inkscape:window-height="1031"
     inkscape:window-x="0"
     inkscape:window-y="25"
     inkscape:window-maximized="1" />
  <metadata
     id="metadata7">
    <rdf:RDF>
      <cc:Work
         rdf:about="">
        <dc:format>image/svg+xml</dc:format>
        <dc:type
           rdf:resource="http://purl.org/dc/dcmitype/StillImage" />
        <dc:title></dc:title>
      </cc:Work>
    </rdf:RDF>
  </metadata>
  <g
     inkscape:label="Calque 1"
     inkscape:groupmode="layer"
     id="layer1"
     transform="translate(0,-992.36216)"
     style="display:inline;opacity:0.05">
    <rect
       style="fill:#ff00ff"
       id="rect3375"
       width="71.948112"
       height="67.440308"
       x="-2.8284271"
       y="989.25287" />
  </g>
  <g
     style="display:inline;opacity:0.35"
     inkscape:label="Copie de Calque 3"
     id="g3653"
     inkscape:groupmode="layer">
    <path
       inkscape:connector-curvature="0"
       id="path3655"
       d="M 31.021859,59.366298 C 30.755744,59.21756 3.0685426,33.584693 1.5091807,32.043405 0.70002263,31.243624 0.69319973,31.231187 0.61249233,30.408932 0.50983553,29.363074 0.67336093,28.95092 1.4755327,28.233623 1.8069066,27.93731 8.5563367,21.69759 16.474264,14.367576 24.392192,7.0375617 31.014964,0.96458351 31.191533,0.87206961 c 0.201271,-0.1054558 0.530871,-0.1445556 0.883509,-0.1048088 1.032826,0.1164147 1.64732,1.22468799 1.169218,2.10875079 C 33.114723,3.1155384 27.300174,8.589882 19.855668,15.481245 l -13.1596094,12.181823 27.2416034,0.03109 27.241605,0.03109 0,2.464572 0,2.464571 -27.204865,0.03108 -27.2048641,0.03109 12.9379861,12.001358 c 7.115893,6.600748 13.062556,12.147266 13.214807,12.325597 0.37771,0.442409 0.461056,0.989795 0.2336,1.534174 -0.328748,0.786802 -1.417491,1.189128 -2.134072,0.788606 z"
       style="fill:#668000" />
  </g>
  <g
     inkscape:groupmode="layer"
     id="layer2"
     inkscape:label="Calque 2"
     style="display:inline;opacity:0.97999995">
    <path
       style="fill:#008080"
       d="M 31.817354,59.366298 C 31.551239,59.21756 3.8640378,33.584693 2.3046759,32.043405 1.4955178,31.243624 1.4886949,31.231187 1.4079875,30.408932 1.3053307,29.363074 1.4688561,28.95092 2.2710279,28.233623 2.6024018,27.93731 9.3518319,21.69759 17.269759,14.367576 25.187687,7.0375617 31.810459,0.96458351 31.987028,0.87206961 c 0.201271,-0.1054558 0.530871,-0.1445556 0.883509,-0.1048088 1.032826,0.1164147 1.64732,1.22468799 1.169218,2.10875079 C 33.910218,3.1155384 28.095669,8.589882 20.651163,15.481245 l -13.1596092,12.181823 27.2416032,0.03109 27.241605,0.03109 0,2.464572 0,2.464571 -27.204865,0.03108 -27.2048639,0.03109 12.9379859,12.001358 c 7.115893,6.600748 13.062556,12.147266 13.214807,12.325597 0.37771,0.442409 0.461056,0.989795 0.2336,1.534174 -0.328748,0.786802 -1.417491,1.189128 -2.134072,0.788606 z"
       id="path3643"
       inkscape:connector-curvature="0" />
  </g>
</svg>
